<?xml version="1.0" encoding="UTF-8" standalone="no"?>
<!DOCTYPE svg PUBLIC "-//W3C//DTD SVG 1.1//EN"
 "http://www.w3.org/Graphics/SVG/1.1/DTD/svg11.dtd">
<!-- Generated by graphviz version 12.2.1 (20241206.2353)
 -->
<!-- Title: counter Pages: 1 -->
<svg width="584pt" height="271pt"
 viewBox="0.00 0.00 583.62 271.00" xmlns="http://www.w3.org/2000/svg" xmlns:xlink="http://www.w3.org/1999/xlink">
<g id="graph0" class="graph" transform="scale(1 1) rotate(0) translate(4 267)">
<title>counter</title>
<polygon fill="white" stroke="none" points="-4,4 -4,-267 579.62,-267 579.62,4 -4,4"/>
<text text-anchor="middle" x="287.81" y="-7.2" font-family="Times New Roman,serif" font-size="14.00">counter</text>
<!-- n3 -->
<g id="node1" class="node">
<title>n3</title>
<polygon fill="none" stroke="black" points="72.97,-131.54 72.97,-146.46 53.07,-157 24.92,-157 5.01,-146.46 5.01,-131.54 24.92,-121 53.07,-121 72.97,-131.54"/>
<text text-anchor="middle" x="38.99" y="-133.95" font-family="Times New Roman,serif" font-size="14.00">count</text>
</g>
<!-- c14 -->
<g id="node7" class="node">
<title>c14</title>
<polygon fill="none" stroke="black" points="108.97,-67.5 108.97,-116.5 202.72,-116.5 202.72,-67.5 108.97,-67.5"/>
<text text-anchor="middle" x="121.84" y="-99.2" font-family="Times New Roman,serif" font-size="14.00">A</text>
<polyline fill="none" stroke="black" points="108.97,-92 134.72,-92"/>
<text text-anchor="middle" x="121.84" y="-74.7" font-family="Times New Roman,serif" font-size="14.00">B</text>
<polyline fill="none" stroke="black" points="134.72,-67.5 134.72,-116.5"/>
<text text-anchor="middle" x="155.84" y="-95.2" font-family="Times New Roman,serif" font-size="14.00">$2</text>
<text text-anchor="middle" x="155.84" y="-78.7" font-family="Times New Roman,serif" font-size="14.00">$add</text>
<polyline fill="none" stroke="black" points="176.97,-67.5 176.97,-116.5"/>
<text text-anchor="middle" x="189.84" y="-87.2" font-family="Times New Roman,serif" font-size="14.00">Y</text>
</g>
<!-- n3&#45;&gt;c14 -->
<g id="edge7" class="edge">
<title>n3:e&#45;&gt;c14:w</title>
<path fill="none" stroke="black" stroke-width="3" d="M72.97,-139C90.52,-139 88.94,-117.36 98.42,-108.24"/>
<polygon fill="black" stroke="black" stroke-width="3" points="96.6,-112.66 104.72,-105.86 94.13,-106.12 96.6,-112.66"/>
</g>
<!-- n4 -->
<g id="node2" class="node">
<title>n4</title>
<polygon fill="none" stroke="black" points="336.57,-237.54 336.57,-252.46 320.75,-263 298.39,-263 282.57,-252.46 282.57,-237.54 298.39,-227 320.75,-227 336.57,-237.54"/>
<text text-anchor="middle" x="309.57" y="-239.95" font-family="Times New Roman,serif" font-size="14.00">rst</text>
</g>
<!-- c10 -->
<g id="node4" class="node">
<title>c10</title>
<polygon fill="none" stroke="black" points="415.85,-131.25 415.85,-204.75 536.6,-204.75 536.6,-131.25 415.85,-131.25"/>
<text text-anchor="middle" x="441.1" y="-187.45" font-family="Times New Roman,serif" font-size="14.00">ARST</text>
<polyline fill="none" stroke="black" points="415.85,-180.25 466.35,-180.25"/>
<text text-anchor="middle" x="441.1" y="-162.95" font-family="Times New Roman,serif" font-size="14.00">CLK</text>
<polyline fill="none" stroke="black" points="415.85,-155.75 466.35,-155.75"/>
<text text-anchor="middle" x="441.1" y="-138.45" font-family="Times New Roman,serif" font-size="14.00">D</text>
<polyline fill="none" stroke="black" points="466.35,-131.25 466.35,-204.75"/>
<text text-anchor="middle" x="488.6" y="-171.2" font-family="Times New Roman,serif" font-size="14.00">$3</text>
<text text-anchor="middle" x="488.6" y="-154.7" font-family="Times New Roman,serif" font-size="14.00">$adff</text>
<polyline fill="none" stroke="black" points="510.85,-131.25 510.85,-204.75"/>
<text text-anchor="middle" x="523.72" y="-162.95" font-family="Times New Roman,serif" font-size="14.00">Q</text>
</g>
<!-- n4&#45;&gt;c10 -->
<g id="edge8" class="edge">
<title>n4:e&#45;&gt;c10:w</title>
<path fill="none" stroke="black" d="M337.82,-245C375.04,-245 374.12,-202.62 403.59,-194.01"/>
<polygon fill="black" stroke="black" points="403.9,-197.5 413.35,-192.7 402.97,-190.57 403.9,-197.5"/>
</g>
<!-- n5 -->
<g id="node3" class="node">
<title>n5</title>
<polygon fill="none" stroke="black" points="336.57,-183.54 336.57,-198.46 320.75,-209 298.39,-209 282.57,-198.46 282.57,-183.54 298.39,-173 320.75,-173 336.57,-183.54"/>
<text text-anchor="middle" x="309.57" y="-185.95" font-family="Times New Roman,serif" font-size="14.00">clk</text>
</g>
<!-- n5&#45;&gt;c10 -->
<g id="edge9" class="edge">
<title>n5:e&#45;&gt;c10:w</title>
<path fill="none" stroke="black" d="M337.82,-191C369.36,-191 377.4,-173.07 403.43,-168.87"/>
<polygon fill="black" stroke="black" points="403.63,-172.37 413.34,-168.12 403.1,-165.39 403.63,-172.37"/>
</g>
<!-- c10&#45;&gt;n3 -->
<g id="edge6" class="edge">
<title>c10:e&#45;&gt;n3:w</title>
<path fill="none" stroke="black" stroke-width="3" d="M537.6,-168C554.16,-168 548.46,-193.7 536.6,-205.25 498.14,-242.69 467.83,-218.6 415.85,-205.25 378.99,-195.79 377.58,-173.85 340.82,-164 196.49,-125.33 112.17,-260.81 4.7,-157 2.72,-155.09 1.03,-152.36 0,-149.61"/>
<polygon fill="black" stroke="black" stroke-width="3" points="2.22,-153.88 2.2,-143.29 -4.39,-151.58 2.22,-153.88"/>
</g>
<!-- x0 -->
<g id="node5" class="node">
<title>x0</title>
<path fill="none" stroke="black" d="M290.32,-80C290.32,-80 328.82,-80 328.82,-80 334.82,-80 340.82,-86 340.82,-92 340.82,-92 340.82,-104 340.82,-104 340.82,-110 334.82,-116 328.82,-116 328.82,-116 290.32,-116 290.32,-116 284.32,-116 278.32,-110 278.32,-104 278.32,-104 278.32,-92 278.32,-92 278.32,-86 284.32,-80 290.32,-80"/>
<text text-anchor="middle" x="309.57" y="-93.2" font-family="Times New Roman,serif" font-size="14.00">3:0 &#45; 3:0</text>
</g>
<!-- x0&#45;&gt;c10 -->
<g id="edge1" class="edge">
<title>x0:e&#45;&gt;c10:w</title>
<path fill="none" stroke="black" stroke-width="3" d="M353.5,-99.96C375.56,-107.41 380.04,-133.98 402.03,-141.5"/>
<polygon fill="none" stroke="black" stroke-width="3" points="355.35,-100.24 348.81,-103.28 343.49,-98.41 350.03,-95.37 355.35,-100.24"/>
<polygon fill="none" stroke="black" stroke-width="3" points="400.32,-141.23 406.86,-138.21 412.18,-143.08 405.63,-146.11 400.32,-141.23"/>
</g>
<!-- v1 -->
<g id="node6" class="node">
<title>v1</title>
<ellipse fill="none" stroke="black" cx="38.99" cy="-80" rx="27" ry="18"/>
<text text-anchor="middle" x="38.99" y="-74.95" font-family="Times New Roman,serif" font-size="14.00">1</text>
</g>
<!-- v1&#45;&gt;c14 -->
<g id="edge10" class="edge">
<title>v1:e&#45;&gt;c14:w</title>
<path fill="none" stroke="black" stroke-width="3" d="M67.25,-80C81.3,-80 87.36,-79.86 97.55,-79.79"/>
<polygon fill="black" stroke="black" stroke-width="3" points="94.44,-83.3 104.43,-79.76 94.42,-76.3 94.44,-83.3"/>
</g>
<!-- n1 -->
<g id="node9" class="node">
<title>n1</title>
<ellipse fill="black" stroke="black" cx="240.52" cy="-92" rx="1.8" ry="1.8"/>
</g>
<!-- c14&#45;&gt;n1 -->
<g id="edge2" class="edge">
<title>c14:e&#45;&gt;n1:w</title>
<path fill="none" stroke="black" stroke-width="3" d="M202.72,-92.25C214.09,-92.25 219.4,-92.12 227.27,-92.05"/>
<polygon fill="black" stroke="black" stroke-width="3" points="224.19,-95.56 234.18,-92.02 224.16,-88.56 224.19,-95.56"/>
</g>
<!-- x2 -->
<g id="node8" class="node">
<title>x2</title>
<path fill="none" stroke="black" d="M290.32,-25C290.32,-25 328.82,-25 328.82,-25 334.82,-25 340.82,-31 340.82,-37 340.82,-37 340.82,-49 340.82,-49 340.82,-55 334.82,-61 328.82,-61 328.82,-61 290.32,-61 290.32,-61 284.32,-61 278.32,-55 278.32,-49 278.32,-49 278.32,-37 278.32,-37 278.32,-31 284.32,-25 290.32,-25"/>
<text text-anchor="middle" x="309.57" y="-38.2" font-family="Times New Roman,serif" font-size="14.00">3:0 &#45; 3:0</text>
</g>
<!-- n2 -->
<g id="node10" class="node">
<title>n2</title>
<polygon fill="none" stroke="black" points="476.22,-61 376.82,-43 476.22,-25 575.62,-43 476.22,-61"/>
<text text-anchor="middle" x="476.22" y="-37.95" font-family="Times New Roman,serif" font-size="14.00">$0╲count[3:0]</text>
</g>
<!-- x2&#45;&gt;n2 -->
<g id="edge5" class="edge">
<title>x2:e&#45;&gt;n2:w</title>
<path fill="none" stroke="black" stroke-width="3" d="M340.82,-43C352.19,-43 357.5,-43 365.37,-43"/>
<polygon fill="black" stroke="black" stroke-width="3" points="362.28,-46.5 372.28,-43 362.28,-39.5 362.28,-46.5"/>
</g>
<!-- n1&#45;&gt;x0 -->
<g id="edge3" class="edge">
<title>n1:e&#45;&gt;x0:w</title>
<path fill="none" stroke="black" stroke-width="3" d="M242.32,-92C253.99,-92 259.09,-95.23 267.07,-97.04"/>
<polygon fill="black" stroke="black" stroke-width="3" points="263.49,-100.18 273.8,-97.77 264.23,-93.22 263.49,-100.18"/>
</g>
<!-- n1&#45;&gt;x2 -->
<g id="edge4" class="edge">
<title>n1:e&#45;&gt;x2:w</title>
<path fill="none" stroke="black" stroke-width="3" d="M242.32,-92C264.41,-92 256.36,-59.2 267.62,-47.41"/>
<polygon fill="black" stroke="black" stroke-width="3" points="266.03,-51.78 274.09,-44.89 263.5,-45.25 266.03,-51.78"/>
</g>
</g>
</svg>
